# Blender 4.1.1
# www.blender.org
mtllib untitled.mtl
o Cube
v 1.000000 1.000000 -1.000000
v 1.000000 -1.000000 -1.000000
v 1.000000 1.000000 1.000000
v 1.000000 -1.000000 1.000000
v -1.000000 1.000000 -1.000000
v -1.000000 -1.000000 -1.000000
v -1.000000 1.000000 1.000000
v -1.000000 -1.000000 1.000000
vn -0.0000 1.0000 -0.0000
vn -0.0000 -0.0000 1.0000
vn -1.0000 -0.0000 -0.0000
vn -0.0000 -1.0000 -0.0000
vn 1.0000 -0.0000 -0.0000
vn -0.0000 -0.0000 -1.0000
vt 0.625000 0.500000
vt 0.875000 0.500000
vt 0.875000 0.750000
vt 0.625000 0.750000
vt 0.375000 0.750000
vt 0.625000 1.000000
vt 0.375000 1.000000
vt 0.375000 0.000000
vt 0.625000 0.000000
vt 0.625000 0.250000
vt 0.375000 0.250000
vt 0.125000 0.500000
vt 0.375000 0.500000
vt 0.125000 0.750000
s 0
usemtl Material
f 1/1/1 5/2/1 7/3/1 3/4/1
f 4/5/2 3/4/2 7/6/2 8/7/2
f 8/8/3 7/9/3 5/10/3 6/11/3
f 6/12/4 2/13/4 4/5/4 8/14/4
f 2/13/5 1/1/5 3/4/5 4/5/5
f 6/11/6 5/10/6 1/1/6 2/13/6
o Steve_02_-_Default_0
v -4.000000 -4.000001 2.000001
v -4.000000 -4.000002 -2.000001
v 4.000000 -4.000002 -2.000001
v 4.000000 -4.000001 2.000001
v -4.000000 8.000002 1.999999
v 4.000000 8.000002 1.999999
v 4.000000 8.000002 -2.000002
v -4.000000 8.000002 -2.000002
v -4.000000 -4.000001 2.000001
v 4.000000 -4.000001 2.000001
v 4.000000 8.000002 1.999999
v -4.000000 8.000002 1.999999
v 4.000000 -4.000001 2.000001
v 4.000000 -4.000002 -2.000001
v 4.000000 8.000002 -2.000002
v 4.000000 8.000002 1.999999
v 4.000000 -4.000002 -2.000001
v -4.000000 -4.000002 -2.000001
v -4.000000 8.000002 -2.000002
v 4.000000 8.000002 -2.000002
v -4.000000 -4.000002 -2.000001
v -4.000000 -4.000001 2.000001
v -4.000000 8.000002 1.999999
v -4.000000 8.000002 -2.000002
v -4.000000 8.000004 4.000000
v -4.000000 8.000002 -4.000002
v 4.000000 8.000002 -4.000002
v 4.000000 8.000004 4.000000
v -4.000000 16.000006 3.999999
v 4.000000 16.000006 3.999999
v 4.000000 16.000006 -4.000004
v -4.000000 16.000006 -4.000004
v -4.000000 8.000004 4.000000
v 4.000000 8.000004 4.000000
v 4.000000 16.000006 3.999999
v -4.000000 16.000006 3.999999
v 4.000000 8.000004 4.000000
v 4.000000 8.000002 -4.000002
v 4.000000 16.000006 -4.000004
v 4.000000 16.000006 3.999999
v 4.000000 8.000002 -4.000002
v -4.000000 8.000002 -4.000002
v -4.000000 16.000006 -4.000004
v 4.000000 16.000006 -4.000004
v -4.000000 8.000002 -4.000002
v -4.000000 8.000004 4.000000
v -4.000000 16.000006 3.999999
v -4.000000 16.000006 -4.000004
v 4.000000 -4.000001 2.000001
v 4.000000 -4.000002 -2.000001
v 8.000000 -4.000002 -2.000001
v 8.000000 -4.000001 2.000001
v 4.000000 8.000002 1.999999
v 8.000000 8.000002 1.999999
v 8.000000 8.000002 -2.000002
v 4.000000 8.000002 -2.000002
v 4.000000 -4.000001 2.000001
v 8.000000 -4.000001 2.000001
v 8.000000 8.000002 1.999999
v 4.000000 8.000002 1.999999
v 8.000000 -4.000001 2.000001
v 8.000000 -4.000002 -2.000001
v 8.000000 8.000002 -2.000002
v 8.000000 8.000002 1.999999
v 8.000000 -4.000002 -2.000001
v 4.000000 -4.000002 -2.000001
v 4.000000 8.000002 -2.000002
v 8.000000 8.000002 -2.000002
v 4.000000 -4.000002 -2.000001
v 4.000000 -4.000001 2.000001
v 4.000000 8.000002 1.999999
v 4.000000 8.000002 -2.000002
v -8.000000 -4.000001 2.000001
v -8.000000 -4.000002 -2.000001
v -4.000000 -4.000002 -2.000001
v -4.000000 -4.000001 2.000001
v -8.000000 8.000002 1.999999
v -4.000000 8.000002 1.999999
v -4.000000 8.000002 -2.000002
v -8.000000 8.000002 -2.000002
v -8.000000 -4.000001 2.000001
v -4.000000 -4.000001 2.000001
v -4.000000 8.000002 1.999999
v -8.000000 8.000002 1.999999
v -4.000000 -4.000001 2.000001
v -4.000000 -4.000002 -2.000001
v -4.000000 8.000002 -2.000002
v -4.000000 8.000002 1.999999
v -4.000000 -4.000002 -2.000001
v -8.000000 -4.000002 -2.000001
v -8.000000 8.000002 -2.000002
v -4.000000 8.000002 -2.000002
v -8.000000 -4.000002 -2.000001
v -8.000000 -4.000001 2.000001
v -8.000000 8.000002 1.999999
v -8.000000 8.000002 -2.000002
v 0.000000 -16.000006 2.000002
v 0.000000 -16.000006 -2.000000
v 4.000000 -16.000006 -2.000000
v 4.000000 -16.000006 2.000002
v 0.000000 -4.000001 2.000000
v 4.000000 -4.000001 2.000000
v 4.000000 -4.000002 -2.000001
v 0.000000 -4.000002 -2.000001
v 0.000000 -16.000006 2.000002
v 4.000000 -16.000006 2.000002
v 4.000000 -4.000001 2.000000
v 0.000000 -4.000001 2.000000
v 4.000000 -16.000006 2.000002
v 4.000000 -16.000006 -2.000000
v 4.000000 -4.000002 -2.000001
v 4.000000 -4.000001 2.000000
v 4.000000 -16.000006 -2.000000
v 0.000000 -16.000006 -2.000000
v 0.000000 -4.000002 -2.000001
v 4.000000 -4.000002 -2.000001
v 0.000000 -16.000006 -2.000000
v 0.000000 -16.000006 2.000002
v 0.000000 -4.000001 2.000000
v 0.000000 -4.000002 -2.000001
v -4.000000 -16.000006 2.000002
v -4.000000 -16.000006 -2.000000
v 0.000000 -16.000006 -2.000000
v 0.000000 -16.000006 2.000002
v -4.000000 -4.000001 2.000000
v 0.000000 -4.000001 2.000000
v 0.000000 -4.000002 -2.000001
v -4.000000 -4.000002 -2.000001
v -4.000000 -16.000006 2.000002
v 0.000000 -16.000006 2.000002
v 0.000000 -4.000001 2.000000
v -4.000000 -4.000001 2.000000
v 0.000000 -16.000006 2.000002
v 0.000000 -16.000006 -2.000000
v 0.000000 -4.000002 -2.000001
v 0.000000 -4.000001 2.000000
v 0.000000 -16.000006 -2.000000
v -4.000000 -16.000006 -2.000000
v -4.000000 -4.000002 -2.000001
v 0.000000 -4.000002 -2.000001
v -4.000000 -16.000006 -2.000000
v -4.000000 -16.000006 2.000002
v -4.000000 -4.000001 2.000000
v -4.000000 -4.000002 -2.000001
vn -0.0000 -1.0000 -0.0000
vn -0.0000 1.0000 -0.0000
vn -0.0000 -0.0000 1.0000
vn 1.0000 -0.0000 -0.0000
vn -0.0000 -0.0000 -1.0000
vn -1.0000 -0.0000 -0.0000
vt 0.437500 0.312500
vt 0.437500 0.250000
vt 0.562500 0.250000
vt 0.562375 0.312500
vt 0.312500 0.312500
vt 0.312500 0.250000
vt 0.312500 0.500000
vt 0.437500 0.500000
vt 0.500000 0.500000
vt 0.500000 0.312500
vt 0.625000 0.500000
vt 0.625000 0.312500
vt 0.250000 0.500000
vt 0.250000 0.312500
vt 0.250000 0.000000
vt 0.375000 0.000000
vt 0.375000 0.125000
vt 0.250000 0.125000
vt 0.125000 0.125000
vt 0.125000 0.000000
vt 0.125000 0.250000
vt 0.250000 0.250000
vt 0.375000 0.250000
vt 0.500000 0.250000
vt 0.500000 0.125000
vt 0.000000 0.250000
vt 0.125000 0.125000
vt 0.000000 0.125000
vt 0.625000 0.812500
vt 0.625000 0.750000
vt 0.687500 0.750000
vt 0.687500 0.812500
vt 0.562500 0.812500
vt 0.562500 0.750000
vt 0.562500 1.000000
vt 0.625000 1.000000
vt 0.687500 1.000000
vt 0.750000 1.000000
vt 0.750000 0.812500
vt 0.500000 1.000000
vt 0.500000 0.812500
vt 0.750000 0.312500
vt 0.750000 0.250000
vt 0.812500 0.250000
vt 0.812500 0.312500
vt 0.687500 0.312500
vt 0.687500 0.250000
vt 0.687500 0.500000
vt 0.750000 0.500000
vt 0.812500 0.500000
vt 0.875000 0.500000
vt 0.875000 0.312500
vt 0.375000 0.812500
vt 0.375000 0.750000
vt 0.437500 0.750000
vt 0.437500 0.812500
vt 0.312500 0.812500
vt 0.312500 0.750000
vt 0.312500 1.000000
vt 0.375000 1.000000
vt 0.437500 1.000000
vt 0.250000 1.000000
vt 0.250000 0.812500
vt 0.125000 0.312500
vt 0.187500 0.250000
vt 0.187500 0.312500
vt 0.062500 0.312500
vt 0.062500 0.250000
vt 0.062500 0.500000
vt 0.125000 0.500000
vt 0.187500 0.500000
vt 0.000000 0.500000
vt 0.000000 0.312500
s 0
usemtl 02_-_Default
f 9/15/7 10/16/7 11/17/7
f 9/15/7 11/17/7 12/18/7
f 13/19/8 14/15/8 15/16/8
f 13/19/8 15/16/8 16/20/8
f 17/21/9 18/22/9 19/15/9
f 17/21/9 19/15/9 20/19/9
f 21/22/10 22/23/10 23/24/10
f 21/22/10 23/24/10 24/15/10
f 25/23/11 26/25/11 27/26/11
f 25/23/11 27/26/11 28/24/11
f 29/27/12 30/21/12 31/19/12
f 29/27/12 31/19/12 32/28/12
f 33/29/7 34/30/7 35/31/7
f 33/29/7 35/31/7 36/32/7
f 37/33/8 38/32/8 39/29/8
f 37/33/8 39/29/8 40/34/8
f 41/35/9 42/36/9 43/32/9
f 41/35/9 43/32/9 44/33/9
f 45/36/10 46/37/10 47/31/10
f 45/36/10 47/31/10 48/32/10
f 49/37/11 50/38/11 51/39/11
f 49/37/11 51/39/11 52/31/11
f 53/40/12 54/35/12 55/41/12
f 53/40/12 55/41/12 56/42/12
f 57/43/7 58/44/7 59/45/7
f 57/43/7 59/45/7 60/46/7
f 61/47/8 62/43/8 63/44/8
f 61/47/8 63/44/8 64/48/8
f 65/49/9 66/50/9 67/43/9
f 65/49/9 67/43/9 68/47/9
f 69/50/10 70/51/10 71/46/10
f 69/50/10 71/46/10 72/43/10
f 73/51/11 74/52/11 75/53/11
f 73/51/11 75/53/11 76/46/11
f 77/54/12 78/49/12 79/47/12
f 77/54/12 79/47/12 80/55/12
f 81/56/7 82/57/7 83/58/7
f 81/56/7 83/58/7 84/59/7
f 85/60/8 86/56/8 87/57/8
f 85/60/8 87/57/8 88/61/8
f 89/62/9 90/63/9 91/56/9
f 89/62/9 91/56/9 92/60/9
f 93/63/10 94/64/10 95/59/10
f 93/63/10 95/59/10 96/56/10
f 97/64/11 98/65/11 99/66/11
f 97/64/11 99/66/11 100/59/11
f 101/25/12 102/62/12 103/60/12
f 101/25/12 103/60/12 104/26/12
f 105/67/7 106/68/7 107/69/7
f 105/67/7 107/69/7 108/70/7
f 109/71/8 110/67/8 111/68/8
f 109/71/8 111/68/8 112/72/8
f 113/73/9 114/74/9 115/67/9
f 113/73/9 115/67/9 116/71/9
f 117/74/10 118/75/10 119/70/10
f 117/74/10 119/70/10 120/67/10
f 121/75/11 122/54/11 123/55/11
f 121/75/11 123/55/11 124/70/11
f 125/76/12 126/73/12 127/71/12
f 125/76/12 127/71/12 128/77/12
f 129/78/7 130/35/7 131/79/7
f 129/78/7 131/79/7 132/80/7
f 133/81/8 134/78/8 135/35/8
f 133/81/8 135/35/8 136/82/8
f 137/83/9 138/84/9 139/78/9
f 137/83/9 139/78/9 140/81/9
f 141/84/10 142/85/10 143/80/10
f 141/84/10 143/80/10 144/78/10
f 145/85/11 146/27/11 147/28/11
f 145/85/11 147/28/11 148/80/11
f 149/86/12 150/83/12 151/81/12
f 149/86/12 151/81/12 152/87/12
