{
  "accessors": [
    {
      "bufferView": 2,
      "componentType": 5126,
      "count": 2316,
      "max": [
        2.41129994392395,
        2.8512001037597656,
        0.8967999815940857
      ],
      "min": [
        -2.41129994392395,
        0.17870000004768372,
        -0.955299973487854
      ],
      "type": "VEC3"
    },
    {
      "bufferView": 2,
      "byteOffset": 27792,
      "componentType": 5126,
      "count": 2316,
      "max": [
        1.0,
        0.9993115663528442,
        1.0
      ],
      "min": [
        -1.0,
        -0.9998829960823059,
        -0.9999167919158936
      ],
      "type": "VEC3"
    },
    {
      "bufferView": 1,
      "componentType": 5126,
      "count": 2316,
      "max": [
        0.9961000084877014,
        0.9930999875068665
      ],
      "min": [
        -0.9922000169754028,
        0.0048999786376953125
      ],
      "type": "VEC2"
    },
    {
      "bufferView": 0,
      "componentType": 5125,
      "count": 6945,
      "type": "SCALAR"
    },
    {
      "bufferView": 2,
      "byteOffset": 55584,
      "componentType": 5126,
      "count": 2412,
      "max": [
        2.3896000385284424,
        3.1005001068115234,
        1.3011000156402588
      ],
      "min": [
        -2.3896000385284424,
        0.012600000016391277,
        -0.42399999499320984
      ],
      "type": "VEC3"
    },
    {
      "bufferView": 2,
      "byteOffset": 84528,
      "componentType": 5126,
      "count": 2412,
      "max": [
        0.9995657205581665,
        0.9999461770057678,
        0.9998993873596191
      ],
      "min": [
        -0.9995529651641846,
        -0.9999924898147583,
        -0.9994218349456787
      ],
      "type": "VEC3"
    },
    {
      "bufferView": 1,
      "byteOffset": 18528,
      "componentType": 5126,
      "count": 2412,
      "max": [
        0.9911999702453613,
        0.9929999709129333
      ],
      "min": [
        -0.4390000104904175,
        0.009299993515014648
      ],
      "type": "VEC2"
    },
    {
      "bufferView": 0,
      "byteOffset": 27780,
      "componentType": 5125,
      "count": 10668,
      "type": "SCALAR"
    },
    {
      "bufferView": 2,
      "byteOffset": 113472,
      "componentType": 5126,
      "count": 974,
      "max": [
        1.8272000551223755,
        3.066699981689453,
        0.7287999987602234
      ],
      "min": [
        -1.8073999881744385,
        0.25119999051094055,
        -0.41130000352859497
      ],
      "type": "VEC3"
    },
    {
      "bufferView": 2,
      "byteOffset": 125160,
      "componentType": 5126,
      "count": 974,
      "max": [
        0.9976990818977356,
        0.9988418221473694,
        0.999445378780365
      ],
      "min": [
        -0.9976990818977356,
        -0.9991574883460999,
        -0.9988530874252319
      ],
      "type": "VEC3"
    },
    {
      "bufferView": 1,
      "byteOffset": 37824,
      "componentType": 5126,
      "count": 974,
      "max": [
        2.5195000171661377,
        2.237299919128418
      ],
      "min": [
        -1.25,
        -1.238300085067749
      ],
      "type": "VEC2"
    },
    {
      "bufferView": 0,
      "byteOffset": 70452,
      "componentType": 5125,
      "count": 2052,
      "type": "SCALAR"
    }
  ],
  "asset": {
    "extras": {
      "author": "soshamousavi2013 (https://sketchfab.com/soshamousavi2013)",
      "license": "CC-BY-4.0 (http://creativecommons.org/licenses/by/4.0/)",
      "source": "https://sketchfab.com/3d-models/banjo-kazooie-nuts-and-bolts-23868be3705a4f738c9f2e97a517ea8b",
      "title": "banjo kazooie Nuts And Bolts"
    },
    "generator": "Sketchfab-15.24.0",
    "version": "2.0"
  },
  "bufferViews": [
    {
      "buffer": 0,
      "byteLength": 78660,
      "name": "floatBufferViews",
      "target": 34963
    },
    {
      "buffer": 0,
      "byteLength": 45616,
      "byteOffset": 78660,
      "byteStride": 8,
      "name": "floatBufferViews",
      "target": 34962
    },
    {
      "buffer": 0,
      "byteLength": 136848,
      "byteOffset": 124276,
      "byteStride": 12,
      "name": "floatBufferViews",
      "target": 34962
    }
  ],
  "buffers": [
    {
      "byteLength": 261124,
      "uri": "scene.bin"
    }
  ],
  "extensionsRequired": [
    "KHR_materials_pbrSpecularGlossiness"
  ],
  "extensionsUsed": [
    "KHR_materials_pbrSpecularGlossiness"
  ],
  "images": [
    {
      "uri": "textures/material_diffuse.png"
    },
    {
      "uri": "textures/material_1_diffuse.png"
    },
    {
      "uri": "textures/material_2_diffuse.png"
    }
  ],
  "materials": [
    {
      "doubleSided": true,
      "extensions": {
        "KHR_materials_pbrSpecularGlossiness": {
          "diffuseFactor": [
            1.0,
            1.0,
            1.0,
            1.0
          ],
          "diffuseTexture": {
            "index": 0
          },
          "glossinessFactor": 0.0784314,
          "specularFactor": [
            0.0,
            0.0,
            0.0
          ]
        }
      },
      "name": "material"
    },
    {
      "doubleSided": true,
      "extensions": {
        "KHR_materials_pbrSpecularGlossiness": {
          "diffuseFactor": [
            1.0,
            1.0,
            1.0,
            1.0
          ],
          "diffuseTexture": {
            "index": 1
          },
          "glossinessFactor": 0.0784314,
          "specularFactor": [
            0.0,
            0.0,
            0.0
          ]
        }
      },
      "name": "material_1"
    },
    {
      "alphaMode": "MASK",
      "doubleSided": true,
      "extensions": {
        "KHR_materials_pbrSpecularGlossiness": {
          "diffuseFactor": [
            1.0,
            1.0,
            1.0,
            1.0
          ],
          "diffuseTexture": {
            "index": 2
          },
          "glossinessFactor": 0.0784314,
          "specularFactor": [
            0.0,
            0.0,
            0.0
          ]
        }
      },
      "name": "material_2"
    }
  ],
  "meshes": [
    {
      "name": "Object_0",
      "primitives": [
        {
          "attributes": {
            "NORMAL": 1,
            "POSITION": 0,
            "TEXCOORD_0": 2
          },
          "indices": 3,
          "material": 0,
          "mode": 4
        }
      ]
    },
    {
      "name": "Object_1",
      "primitives": [
        {
          "attributes": {
            "NORMAL": 5,
            "POSITION": 4,
            "TEXCOORD_0": 6
          },
          "indices": 7,
          "material": 1,
          "mode": 4
        }
      ]
    },
    {
      "name": "Object_2",
      "primitives": [
        {
          "attributes": {
            "NORMAL": 9,
            "POSITION": 8,
            "TEXCOORD_0": 10
          },
          "indices": 11,
          "material": 2,
          "mode": 4
        }
      ]
    }
  ],
  "nodes": [
    {
      "children": [
        1
      ],
      "matrix": [
        1.0,
        0.0,
        0.0,
        0.0,
        0.0,
        2.220446049250313e-16,
        -1.0,
        0.0,
        0.0,
        1.0,
        2.220446049250313e-16,
        0.0,
        0.0,
        0.0,
        0.0,
        1.0
      ],
      "name": "Sketchfab_model"
    },
    {
      "children": [
        2
      ],
      "name": "root"
    },
    {
      "children": [
        3
      ],
      "matrix": [
        1.0,
        0.0,
        0.0,
        0.0,
        0.0,
        2.220446049250313e-16,
        1.0,
        0.0,
        0.0,
        -1.0,
        2.220446049250313e-16,
        0.0,
        0.0,
        0.0,
        0.0,
        1.0
      ],
      "name": "GLTF_SceneRootNode"
    },
    {
      "children": [
        4
      ],
      "name": "root_3"
    },
    {
      "children": [
        5,
        7,
        9
      ],
      "matrix": [
        0.0010000000474974513,
        0.0,
        0.0,
        0.0,
        0.0,
        0.0010000000474974513,
        0.0,
        0.0,
        0.0,
        0.0,
        0.0010000000474974513,
        0.0,
        0.0,
        0.0,
        0.0,
        1.0
      ],
      "name": "node_id7_4"
    },
    {
      "children": [
        6
      ],
      "matrix": [
        106.16680145263672,
        0.0,
        0.0,
        0.0,
        0.0,
        106.16680145263672,
        0.0,
        0.0,
        0.0,
        0.0,
        106.16680145263672,
        0.0,
        0.00047955321497283876,
        -165.25393676757813,
        237.6437530517578,
        1.0
      ],
      "name": "_0"
    },
    {
      "mesh": 0,
      "name": "Object_6"
    },
    {
      "children": [
        8
      ],
      "matrix": [
        106.16680145263672,
        0.0,
        0.0,
        0.0,
        0.0,
        106.16680145263672,
        0.0,
        0.0,
        0.0,
        0.0,
        106.16680145263672,
        0.0,
        0.00047955321497283876,
        -165.25393676757813,
        237.6437530517578,
        1.0
      ],
      "name": "_1"
    },
    {
      "mesh": 1,
      "name": "Object_8"
    },
    {
      "children": [
        10
      ],
      "matrix": [
        106.16680145263672,
        0.0,
        0.0,
        0.0,
        0.0,
        106.16680145263672,
        0.0,
        0.0,
        0.0,
        0.0,
        106.16680145263672,
        0.0,
        0.00047955321497283876,
        -165.25393676757813,
        237.6437530517578,
        1.0
      ],
      "name": "_2"
    },
    {
      "mesh": 2,
      "name": "Object_10"
    }
  ],
  "samplers": [
    {
      "magFilter": 9729,
      "minFilter": 9987,
      "wrapS": 10497,
      "wrapT": 10497
    }
  ],
  "scene": 0,
  "scenes": [
    {
      "name": "Sketchfab_Scene",
      "nodes": [
        0
      ]
    }
  ],
  "textures": [
    {
      "sampler": 0,
      "source": 0
    },
    {
      "sampler": 0,
      "source": 1
    },
    {
      "sampler": 0,
      "source": 2
    }
  ]
}
